<svg height="267pt" preserveAspectRatio="xMidYMid meet" viewBox="0 0 267 267" width="267pt" xmlns="http://www.w3.org/2000/svg"><g transform="matrix(.1 0 0 -.1 0 267)"><path d="m542 2292c-98-35-142-99-142-204 0-73 24-125 80-169 91-73 315-78 403-9 33 26 34 26 42-10 6-27 10-30 46-30h39v120 120h-150-150v-40-40h80c45 0 80-4 80-10 0-14-52-39-109-51-116-24-221 33-221 120 0 77 64 121 172 121 64 0 148-28 148-50 0-6 30-10 76-10h76l-6 26c-11 44-34 70-89 100-49 27-60 29-187 31-112 3-144 0-188-15z"/><path d="m1202 2292c-100-36-142-97-142-207 0-107 39-163 142-202 32-12 77-17 178-17 121-1 141 2 188 23 96 43 140 121 129 230-8 76-44 126-115 159-51 24-70 27-192 30-112 2-144-1-188-16zm288-104c36-18 48-31 59-64 13-37 12-44-5-80-27-55-78-78-169-78-116 1-175 44-175 129 0 42 40 91 83 104 63 18 159 13 207-11z"/><path d="m1750 2090v-220h65 65v100c0 55 3 100 6 100s56-45 117-100l112-100h90c76 0 87 2 75 14-8 7-64 58-125 112-60 55-110 104-111 109 0 6 50 50 110 98 61 49 115 93 120 98 6 5-23 9-75 9h-85l-111-90c-61-49-114-90-117-90s-6 41-6 90v90h-65-65z"/><path d="m410 1380v-220h70 70v90 91l148-3 147-3 3-87 3-88h64 65v220 220h-65-65v-80-80h-150-150v80 80h-70-70z"/><path d="m1120 1380-110-220h68 69l18 40 18 40h137 137l18-40 18-40h74 75l-55 103c-30 56-82 155-117 220l-62 117h-89-89zm237 48c21-40 39-76 41-80 2-5-33-8-77-8-45 0-81 2-81 5 0 7 74 155 77 155 2 0 20-33 40-72z"/><path d="m1670 1380v-220h65 65v147 148l148-148 147-147h68 67v220 220h-65-64l-3-137-3-137-141 137-142 137h-71-71z"/><path d="m410 670v-220h158c86 0 188 5 225 10 149 22 217 89 217 215 0 116-55 178-178 204-29 6-136 11-237 11h-185zm366 109c109-28 130-155 32-199-34-15-66-20-150-20h-108v115 115h91c49 0 110-5 135-11z"/><path d="m1060 670v-220h235 235v55 55h-165-165v30 30h155 155v55 55h-155-155v30 30h160 160v50 50h-230-230z"/><path d="m1552 882c2-4 53-103 113-220l110-212h82c55 0 84 4 90 13 12 20 203 415 203 421 0 4-31 6-69 6h-68l-33-72c-19-40-53-113-76-162l-42-89-81 161-81 162h-76c-42 0-74-3-72-8z"/><path d="m2080 505v-55h70 70v55 55h-70-70z"/></g></svg>